<svg width="2198" height="1442" viewBox="0 0 2198 1442" fill="none" xmlns="http://www.w3.org/2000/svg">
<g clip-path="url(#clip0_16_36)">
<path d="M230.525 1023.37L419.424 1050.83L393.791 1239.99C392.224 1252.37 388.109 1264.29 381.707 1275.01C375.305 1285.72 366.754 1295 356.591 1302.25C346.429 1309.49 334.876 1314.56 322.66 1317.12C310.444 1319.69 297.83 1319.69 285.611 1317.14C273.392 1314.59 261.834 1309.54 251.664 1302.3C241.495 1295.06 232.934 1285.8 226.52 1275.09C220.107 1264.38 215.98 1252.46 214.4 1240.08C212.82 1227.7 213.821 1215.12 217.34 1203.15C204.896 1203.16 192.584 1200.61 181.173 1195.64C169.763 1190.68 159.499 1183.42 151.025 1174.31C142.551 1165.19 136.049 1154.43 131.926 1142.69C127.803 1130.95 126.148 1118.49 127.063 1106.08C127.979 1093.67 131.447 1081.58 137.249 1070.57C143.05 1059.56 151.062 1049.87 160.782 1042.1C170.501 1034.33 181.72 1028.65 193.736 1025.42C205.751 1022.19 218.305 1021.47 230.611 1023.31" stroke="white" stroke-width="20" stroke-linecap="round" stroke-linejoin="round"/>
<path d="M131.695 1081.43L128 1099.38L128 1115.21L131.695 1144.77L139.086 1156.39L155.978 1174.86L177.093 1187.53L190.29 1193.34L218.268 1196.51L221.435 1202.84L218.268 1230.29L221.435 1256.16L234.104 1284.13L261.026 1307.89L287.948 1317.92L309.591 1317.92L341.264 1307.89L370.297 1284.13L385.078 1256.16L412 1054.51L274.751 1033.92L201.903 1026L177.093 1033.92L155.978 1047.12L139.086 1067.17L131.695 1081.43Z" fill="white"/>
</g>
<g clip-path="url(#clip1_16_36)">
<path d="M1967.28 418.431L1778.38 390.974L1804.01 201.819C1805.58 189.436 1809.7 177.511 1816.1 166.796C1822.5 156.08 1831.05 146.807 1841.21 139.559C1851.38 132.311 1862.93 127.246 1875.14 124.682C1887.36 122.118 1899.97 122.112 1912.19 124.663C1924.41 127.214 1935.97 132.267 1946.14 139.504C1956.31 146.742 1964.87 156.006 1971.28 166.715C1977.7 177.423 1981.82 189.344 1983.4 201.726C1984.98 214.107 1983.98 226.682 1980.47 238.658C1992.91 238.644 2005.22 241.198 2016.63 246.16C2028.04 251.123 2038.31 258.388 2046.78 267.5C2055.25 276.611 2061.76 287.374 2065.88 299.115C2070 310.855 2071.66 323.32 2070.74 335.729C2069.83 348.139 2066.36 360.225 2060.56 371.233C2054.75 382.241 2046.74 391.933 2037.02 399.702C2027.3 407.471 2016.08 413.15 2004.07 416.384C1992.05 419.618 1979.5 420.337 1967.19 418.496" stroke="white" stroke-width="20" stroke-linecap="round" stroke-linejoin="round"/>
<path d="M2066.11 360.377L2069.8 342.429L2069.8 326.593L2066.11 297.031L2058.72 285.418L2041.83 266.942L2020.71 254.273L2007.51 248.466L1979.54 245.299L1976.37 238.964L1979.54 211.515L1976.37 185.648L1963.7 157.671L1936.78 133.916L1909.86 123.886L1888.21 123.886L1856.54 133.916L1827.51 157.671L1812.73 185.648L1785.8 387.299L1923.05 407.886L1995.9 415.805L2020.71 407.886L2041.83 394.689L2058.72 374.63L2066.11 360.377Z" fill="white"/>
</g>
<ellipse cx="1099" cy="723.001" rx="750" ry="375" transform="rotate(-25 1099 723.001)" fill="#AB1F51"/>
<g clip-path="url(#clip2_16_36)">
<ellipse cx="1099" cy="723.001" rx="750" ry="375" transform="rotate(-25 1099 723.001)" fill="#5B1616"/>
</g>
<g clip-path="url(#clip3_16_36)">
<ellipse cx="1099" cy="723.001" rx="750" ry="375" transform="rotate(-25 1099 723.001)" fill="#A89637"/>
</g>
<g clip-path="url(#clip4_16_36)">
<ellipse cx="1099" cy="723.001" rx="750" ry="375" transform="rotate(-25 1099 723.001)" fill="#407B46"/>
</g>
<g clip-path="url(#clip5_16_36)">
<ellipse cx="1099" cy="723.001" rx="750" ry="375" transform="rotate(-25 1099 723.001)" fill="#418B9B"/>
</g>
<g clip-path="url(#clip6_16_36)">
<ellipse cx="1099" cy="723.001" rx="750" ry="375" transform="rotate(-25 1099 723.001)" fill="#826AE3"/>
</g>
<path d="M854.2 735.562C865.491 730.297 876.148 727.305 886.17 726.586C896.274 725.641 902.589 727.875 905.113 733.288C907.638 738.702 908.687 746.404 908.261 756.395C907.918 766.159 906.355 771.69 903.57 772.988C902.797 773.349 901.689 773.395 900.245 773.126C898.884 772.631 896.132 772.785 891.987 773.588C887.924 774.164 884.578 775.065 881.949 776.291C872.977 780.474 867.186 787.035 864.575 795.974C862.119 804.84 863.956 815.847 870.087 828.994C876.145 841.987 883.437 850.356 891.963 854.101C900.643 857.774 909.314 857.591 917.976 853.552C921.534 851.893 925.261 849.59 929.16 846.642C933.14 843.468 935.626 840.52 936.617 837.798C936.782 837.345 937.328 836.901 938.256 836.469C939.184 836.036 941.715 837.021 945.849 839.425C950.065 841.602 954.591 845.047 959.425 849.76C964.187 854.318 967.289 858.144 968.732 861.238C971.545 867.27 969.14 874.229 961.519 882.114C953.897 889.999 943.744 896.899 931.061 902.814C910.643 912.334 890.507 912.968 870.652 904.714C850.797 896.459 834.774 879.262 822.585 853.122C810.323 826.827 807.423 803.04 813.883 781.761C820.498 760.411 833.937 745.011 854.2 735.562ZM1119.37 805.965C1120.88 809.213 1114.37 814.227 1099.83 821.007C1085.29 827.787 1076.86 830.305 1074.54 828.562L1002.04 774.241L1035.69 846.398C1036.99 849.182 1030.44 853.928 1016.06 860.636C1001.83 867.272 994.065 869.197 992.767 866.413L920.387 711.195C919.305 708.875 924.874 704.866 937.094 699.168C941.889 696.932 947.673 694.8 954.448 692.77C961.305 690.514 965.97 690.222 968.444 691.893L1038.89 746.043L1004.92 673.19C1003.55 670.252 1010.05 665.428 1024.44 658.72C1038.82 652.013 1046.7 650.128 1048.07 653.067L1119.37 805.965ZM1140.08 789.53L1075.16 650.321C1073.36 646.454 1072.88 643.005 1073.73 639.974C1074.66 636.717 1076.67 634.366 1079.76 632.924L1118.51 614.856C1143.1 603.388 1164.62 600.884 1183.08 607.343C1201.69 613.731 1217.19 630.227 1229.6 656.831C1256.14 713.752 1245.13 753.537 1196.56 776.185L1156.89 794.685C1149 798.364 1143.39 796.645 1140.08 789.53ZM1134.42 661.103L1166.77 730.475C1168.29 733.723 1169.49 735.703 1170.39 736.415C1171.21 736.972 1172.79 736.71 1175.11 735.628C1183.61 731.661 1188.55 725.496 1189.93 717.135C1191.46 708.702 1188.79 697.138 1181.94 682.444C1175.02 667.595 1168.19 659.009 1161.46 656.688C1154.88 654.294 1146.64 655.405 1136.74 660.021L1134.42 661.103ZM1296.6 541.131C1296.09 534.779 1304.72 527.456 1322.51 519.162C1327 517.07 1332.4 514.927 1338.72 512.733C1345.2 510.467 1348.42 509.906 1348.39 511.05L1345.35 630.536L1371.75 687.147C1372.98 689.777 1369.59 693.617 1361.59 698.666C1357.54 701.304 1353.44 703.597 1349.26 705.545C1345.08 707.492 1340.8 709.208 1336.41 710.691C1327.39 713.575 1322.24 713.625 1320.94 710.841L1295.19 655.622L1199.65 580.972C1198.6 580.333 1201.37 578.003 1207.97 573.984C1214.5 569.81 1220.16 566.606 1224.96 564.37C1243.98 555.498 1255.72 553.414 1260.17 558.117L1299.18 597.55L1296.6 541.131Z" fill="white"/>
<defs>
<clipPath id="clip0_16_36">
<rect width="434" height="434" fill="white" transform="translate(261.226 1441.8) rotate(-127.006)"/>
</clipPath>
<clipPath id="clip1_16_36">
<rect width="434" height="434" fill="white" transform="translate(1936.58) rotate(52.9937)"/>
</clipPath>
<clipPath id="clip2_16_36">
<rect width="250" height="965" fill="white" transform="translate(1608 240)"/>
</clipPath>
<clipPath id="clip3_16_36">
<rect width="250" height="965" fill="white" transform="translate(1358 240)"/>
</clipPath>
<clipPath id="clip4_16_36">
<rect width="250" height="965" fill="white" transform="translate(1108 240)"/>
</clipPath>
<clipPath id="clip5_16_36">
<rect width="250" height="965" fill="white" transform="translate(858 240)"/>
</clipPath>
<clipPath id="clip6_16_36">
<rect width="250" height="965" fill="white" transform="translate(608 240)"/>
</clipPath>
</defs>
</svg>
