<svg width="3000" height="3000" viewBox="0 0 3000 3000" fill="none" xmlns="http://www.w3.org/2000/svg">
<rect width="3000" height="3000" fill="#87999E"/>
<g clip-path="url(#clip0_16_35)">
<path d="M631.525 1802.37L820.424 1829.83L794.791 2018.99C793.224 2031.37 789.109 2043.29 782.707 2054.01C776.305 2064.72 767.754 2074 757.591 2081.25C747.429 2088.49 735.876 2093.56 723.66 2096.12C711.444 2098.69 698.83 2098.69 686.611 2096.14C674.392 2093.59 662.834 2088.54 652.664 2081.3C642.495 2074.06 633.934 2064.8 627.52 2054.09C621.107 2043.38 616.98 2031.46 615.4 2019.08C613.82 2006.7 614.821 1994.12 618.34 1982.15C605.896 1982.16 593.584 1979.61 582.173 1974.64C570.763 1969.68 560.499 1962.42 552.025 1953.31C543.551 1944.19 537.049 1933.43 532.926 1921.69C528.803 1909.95 527.148 1897.49 528.063 1885.08C528.979 1872.67 532.447 1860.58 538.249 1849.57C544.05 1838.56 552.062 1828.87 561.782 1821.1C571.501 1813.33 582.72 1807.65 594.736 1804.42C606.751 1801.19 619.305 1800.47 631.611 1802.31" stroke="white" stroke-width="20" stroke-linecap="round" stroke-linejoin="round"/>
<path d="M532.695 1860.43L529 1878.38L529 1894.21L532.695 1923.77L540.086 1935.39L556.978 1953.86L578.093 1966.53L591.29 1972.34L619.268 1975.51L622.435 1981.84L619.268 2009.29L622.435 2035.16L635.104 2063.13L662.026 2086.89L688.948 2096.92L710.591 2096.92L742.264 2086.89L771.297 2063.13L786.078 2035.16L813 1833.51L675.751 1812.92L602.903 1805L578.093 1812.92L556.978 1826.12L540.086 1846.17L532.695 1860.43Z" fill="white"/>
</g>
<g clip-path="url(#clip1_16_35)">
<path d="M2368.28 1197.43L2179.38 1169.97L2205.01 980.819C2206.58 968.436 2210.7 956.511 2217.1 945.796C2223.5 935.08 2232.05 925.807 2242.21 918.559C2252.38 911.311 2263.93 906.246 2276.14 903.682C2288.36 901.118 2300.97 901.112 2313.19 903.663C2325.41 906.214 2336.97 911.267 2347.14 918.504C2357.31 925.742 2365.87 935.006 2372.28 945.715C2378.7 956.423 2382.82 968.344 2384.4 980.726C2385.98 993.107 2384.98 1005.68 2381.47 1017.66C2393.91 1017.64 2406.22 1020.2 2417.63 1025.16C2429.04 1030.12 2439.31 1037.39 2447.78 1046.5C2456.25 1055.61 2462.76 1066.37 2466.88 1078.11C2471 1089.85 2472.66 1102.32 2471.74 1114.73C2470.83 1127.14 2467.36 1139.23 2461.56 1150.23C2455.75 1161.24 2447.74 1170.93 2438.02 1178.7C2428.3 1186.47 2417.08 1192.15 2405.07 1195.38C2393.05 1198.62 2380.5 1199.34 2368.19 1197.5" stroke="white" stroke-width="20" stroke-linecap="round" stroke-linejoin="round"/>
<path d="M2467.11 1139.38L2470.8 1121.43L2470.8 1105.59L2467.11 1076.03L2459.72 1064.42L2442.83 1045.94L2421.71 1033.27L2408.51 1027.47L2380.54 1024.3L2377.37 1017.96L2380.54 990.515L2377.37 964.648L2364.7 936.671L2337.78 912.916L2310.86 902.886L2289.21 902.886L2257.54 912.916L2228.51 936.671L2213.73 964.648L2186.8 1166.3L2324.05 1186.89L2396.9 1194.8L2421.71 1186.89L2442.83 1173.69L2459.72 1153.63L2467.11 1139.38Z" fill="white"/>
</g>
<ellipse cx="1500" cy="1502" rx="750" ry="375" transform="rotate(-25 1500 1502)" fill="#AB1F51"/>
<g clip-path="url(#clip2_16_35)">
<ellipse cx="1500" cy="1502" rx="750" ry="375" transform="rotate(-25 1500 1502)" fill="#5B1616"/>
</g>
<g clip-path="url(#clip3_16_35)">
<ellipse cx="1500" cy="1502" rx="750" ry="375" transform="rotate(-25 1500 1502)" fill="#A89637"/>
</g>
<g clip-path="url(#clip4_16_35)">
<ellipse cx="1500" cy="1502" rx="750" ry="375" transform="rotate(-25 1500 1502)" fill="#407B46"/>
</g>
<g clip-path="url(#clip5_16_35)">
<ellipse cx="1500" cy="1502" rx="750" ry="375" transform="rotate(-25 1500 1502)" fill="#418B9B"/>
</g>
<g clip-path="url(#clip6_16_35)">
<ellipse cx="1500" cy="1502" rx="750" ry="375" transform="rotate(-25 1500 1502)" fill="#826AE3"/>
</g>
<path d="M1255.2 1514.56C1266.49 1509.3 1277.15 1506.3 1287.17 1505.59C1297.27 1504.64 1303.59 1506.87 1306.11 1512.29C1308.64 1517.7 1309.69 1525.4 1309.26 1535.39C1308.92 1545.16 1307.35 1550.69 1304.57 1551.99C1303.8 1552.35 1302.69 1552.39 1301.25 1552.13C1299.88 1551.63 1297.13 1551.78 1292.99 1552.59C1288.92 1553.16 1285.58 1554.06 1282.95 1555.29C1273.98 1559.47 1268.19 1566.04 1265.58 1574.97C1263.12 1583.84 1264.96 1594.85 1271.09 1607.99C1277.15 1620.99 1284.44 1629.36 1292.96 1633.1C1301.64 1636.77 1310.31 1636.59 1318.98 1632.55C1322.53 1630.89 1326.26 1628.59 1330.16 1625.64C1334.14 1622.47 1336.63 1619.52 1337.62 1616.8C1337.78 1616.34 1338.33 1615.9 1339.26 1615.47C1340.18 1615.04 1342.72 1616.02 1346.85 1618.42C1351.07 1620.6 1355.59 1624.05 1360.42 1628.76C1365.19 1633.32 1368.29 1637.14 1369.73 1640.24C1372.54 1646.27 1370.14 1653.23 1362.52 1661.11C1354.9 1669 1344.74 1675.9 1332.06 1681.81C1311.64 1691.33 1291.51 1691.97 1271.65 1683.71C1251.8 1675.46 1235.77 1658.26 1223.58 1632.12C1211.32 1605.83 1208.42 1582.04 1214.88 1560.76C1221.5 1539.41 1234.94 1524.01 1255.2 1514.56ZM1520.37 1584.96C1521.88 1588.21 1515.37 1593.23 1500.83 1600.01C1486.29 1606.79 1477.86 1609.31 1475.54 1607.56L1403.04 1553.24L1436.69 1625.4C1437.99 1628.18 1431.44 1632.93 1417.06 1639.64C1402.83 1646.27 1395.06 1648.2 1393.77 1645.41L1321.39 1490.2C1320.31 1487.88 1325.87 1483.87 1338.09 1478.17C1342.89 1475.93 1348.67 1473.8 1355.45 1471.77C1362.3 1469.51 1366.97 1469.22 1369.44 1470.89L1439.89 1525.04L1405.92 1452.19C1404.55 1449.25 1411.05 1444.43 1425.44 1437.72C1439.82 1431.01 1447.7 1429.13 1449.07 1432.07L1520.37 1584.96ZM1541.08 1568.53L1476.16 1429.32C1474.36 1425.45 1473.88 1422.01 1474.73 1418.97C1475.66 1415.72 1477.67 1413.37 1480.76 1411.92L1519.51 1393.86C1544.1 1382.39 1565.62 1379.88 1584.08 1386.34C1602.69 1392.73 1618.19 1409.23 1630.6 1435.83C1657.14 1492.75 1646.13 1532.54 1597.56 1555.18L1557.89 1573.69C1550 1577.36 1544.39 1575.65 1541.08 1568.53ZM1535.42 1440.1L1567.77 1509.48C1569.29 1512.72 1570.49 1514.7 1571.39 1515.41C1572.21 1515.97 1573.79 1515.71 1576.11 1514.63C1584.61 1510.66 1589.55 1504.5 1590.93 1496.14C1592.46 1487.7 1589.79 1476.14 1582.94 1461.44C1576.02 1446.59 1569.19 1438.01 1562.46 1435.69C1555.88 1433.29 1547.64 1434.4 1537.74 1439.02L1535.42 1440.1ZM1697.6 1320.13C1697.09 1313.78 1705.72 1306.46 1723.51 1298.16C1728 1296.07 1733.4 1293.93 1739.72 1291.73C1746.2 1289.47 1749.42 1288.91 1749.39 1290.05L1746.35 1409.54L1772.75 1466.15C1773.98 1468.78 1770.59 1472.62 1762.59 1477.67C1758.54 1480.3 1754.44 1482.6 1750.26 1484.54C1746.08 1486.49 1741.8 1488.21 1737.41 1489.69C1728.39 1492.58 1723.24 1492.63 1721.94 1489.84L1696.19 1434.62L1600.65 1359.97C1599.6 1359.33 1602.37 1357 1608.97 1352.98C1615.5 1348.81 1621.16 1345.61 1625.96 1343.37C1644.98 1334.5 1656.72 1332.41 1661.17 1337.12L1700.18 1376.55L1697.6 1320.13Z" fill="white"/>
<defs>
<clipPath id="clip0_16_35">
<rect width="434" height="434" fill="white" transform="translate(662.226 2220.8) rotate(-127.006)"/>
</clipPath>
<clipPath id="clip1_16_35">
<rect width="434" height="434" fill="white" transform="translate(2337.58 779) rotate(52.9937)"/>
</clipPath>
<clipPath id="clip2_16_35">
<rect width="250" height="965" fill="white" transform="translate(2009 1019)"/>
</clipPath>
<clipPath id="clip3_16_35">
<rect width="250" height="965" fill="white" transform="translate(1759 1019)"/>
</clipPath>
<clipPath id="clip4_16_35">
<rect width="250" height="965" fill="white" transform="translate(1509 1019)"/>
</clipPath>
<clipPath id="clip5_16_35">
<rect width="250" height="965" fill="white" transform="translate(1259 1019)"/>
</clipPath>
<clipPath id="clip6_16_35">
<rect width="250" height="965" fill="white" transform="translate(1009 1019)"/>
</clipPath>
</defs>
</svg>
